<svg xmlns="http://www.w3.org/2000/svg" viewBox="0 0 2000 1400"><defs><style>.cls-1{isolation:isolate;}.cls-2{fill:#fbb518;}.cls-3{fill:#ce102b;}.cls-4,.cls-7{font-size:317.51px;font-family:Aileron-Black, Aileron;font-weight:800;}.cls-4{fill:#db082e;}.cls-5{letter-spacing:-0.07em;}.cls-6{letter-spacing:-0.07em;}.cls-7{fill:#fdbd0c;}.cls-8{fill:#f6c074;}.cls-10,.cls-9{fill:#f1a130;}.cls-11,.cls-13,.cls-16,.cls-21,.cls-9{mix-blend-mode:multiply;}.cls-11,.cls-20,.cls-21,.cls-24{fill:#fae0bb;}.cls-11,.cls-16{opacity:0.3;}.cls-12,.cls-15{fill:#f6c279;}.cls-12,.cls-15,.cls-24{mix-blend-mode:screen;}.cls-13{opacity:0.4;}.cls-14{fill:#ef9719;}.cls-15{opacity:0.7;}.cls-16{fill:#a62a0b;}.cls-17{fill:#fcecd4;}.cls-18{fill:#850b23;}.cls-19{fill:#ce6b50;}.cls-22{fill:#e96f42;}.cls-23{fill:#bd4b23;}.cls-25{fill:#1e641e;}.cls-26{fill:#39aa35;}.cls-27{fill:#e7550e;}.cls-28{fill:#ffdb05;}.cls-29{fill:#9c1006;}.cls-30{fill:#d50911;}</style></defs><g class="cls-1"><g id="Слой_1" data-name="Слой 1"><path class="cls-2" d="M799.7,156.73s146.9,95.13,149.71,156.94c2.32,50.87-27.72,90.59-38.43,103.06a77.87,77.87,0,0,0-13.64,22.6c-6.45,16.71-9.11,40.89,19.16,55.76,0,0-49.37,5.22-48.16-55.39,0,0-3.62-24.48,18.86-62.61C903.74,349,903.33,328.36,902,319.4a24.29,24.29,0,0,0-2.66-7.86c-4.26-7.87-17.63-31.22-43.41-65.7C823.79,202.89,799.7,156.73,799.7,156.73Z"/><path class="cls-3" d="M877,11.84s198.23,146,205.13,233.19c.18,2.28.43,4.54.78,6.79,1.48,9.39,4.17,36.81-9,62.25-16.26,31.31-118,142.09-30.71,188.44,0,0-63.13,4.22-62.57-73.45,0,0,3.57-40.33,27-84.28,0,0,54.79-76.46,11.44-136.07S940.83,116.6,877,11.84Z"/><path class="cls-3" d="M1016.71,25.69s207.7,142.68,204.09,240.82c0,0,12.64,26.49-40.94,104.15s-33.11,113.27,1.21,131.9c0,0-61.32,5.37-61.67-71.69,0,0,6.28-44.55,34-93.92s26.49-92.11-4.81-133S1018.51,35.92,1016.71,25.69Z"/><text class="cls-4" transform="translate(5.99 1371.28)">VI<tspan class="cls-5" x="335.29" y="0">V</tspan><tspan class="cls-6" x="547.38" y="0">A</tspan><tspan x="749.64" y="0">T</tspan></text><text class="cls-7" transform="translate(1046.26 1371.28)">PIZZA</text><path class="cls-8" d="M1798.41,834.11c1.63,123.34-351.82,228-789.45,233.82s-793.77-89.44-795.4-212.77,351.83-228,789.47-233.8S1796.79,710.8,1798.41,834.11Z"/><path class="cls-9" d="M1734.81,801.45c1.17,89.34-324.36,166.09-727.11,171.43S277.47,910.15,276.28,820.79s324.36-166.08,727.13-171.42S1733.63,712.1,1734.81,801.45Z"/><path class="cls-10" d="M1703.65,808.79c1.12,85.53-310.47,159-695.95,164.09s-698.93-60-700.06-145.57,310.45-159,696-164.07S1702.52,723.27,1703.65,808.79Z"/><path class="cls-11" d="M1003.59,663.24c-385.5,5.11-697.09,78.57-695.95,164.07S622.18,978,1007.7,972.88s697.07-78.56,696-164.09S1389.08,658.13,1003.59,663.24ZM361.38,802.78c-2.15-.79-2.26-3.56-1.64-5.35,15.83-45.32,79.27-39.83,114.93-57.92a5.49,5.49,0,0,1,4-.58c75.21-24.54,151.7-37.9,232.93-42.52,45.21-2.57,90.64-2.4,135.89-2.83,26.38-.24,60.71-1.94,80.68,18.58,3,3-.47,7.39-3.4,8.7-40.39,18.18-85.83,12.19-128.8,15.66-55.17,4.49-110.73,13-165.09,23.32-54.6,10.37-111.38,16.1-165.25,29.53C432.4,797.64,395.54,815.3,361.38,802.78Zm520.43,129.9c-33.92,9-70.18,8.13-105,8.05-45.35-.11-90.65-1-136-1-28.06,0-64.57-.38-86.41-21-22.75-21.52-45.71-18.74-75-18.67-22.8.07-89.73.91-85.47-37.34,3-27,52.6-37,72.16-42,40.43-10.38,82.68-16.18,124.29-19.13,18.84-1.33,37.21-2.5,55.69-5.43a5.58,5.58,0,0,1,2.17-1A1260.32,1260.32,0,0,1,834.89,773c40.61-1.68,110.25-8.5,111.83,48.62C948,869,932.77,919.22,881.81,932.68Zm166.47-227.49c35.35-34.39,94.89-23.15,139.52-29.12,2.26-.3,3.41.6,3.89,1.91,30.1.2,60.35,3.95,90.52,7,32.12,3.33,83.66,4.69,105.26,33.31,2.23,3,.21,7.78-3.4,8.71-64.92,16.72-127.48-4.26-192.6-1.07-43.74,2.14-104.75,14.14-143.18-13C1045.51,711,1045.92,707.48,1048.28,705.19ZM1285.73,879.3c-8.19,21.48-38.36,28.81-58.11,32.61-35.44,6.81-73.45,13.41-109.34,16.51-35,3-63-6.26-78.77-39.67-7.16-15.14-33.39-80.53-18-102.51a6.19,6.19,0,0,1,1.46-2,16.4,16.4,0,0,1,8-4.45c10.29-4.11,20.61-2.76,32.48,1,26,8.15,53.08,12.35,79.29,19.79,35,10,71,22,104.31,37C1261.29,843.93,1293.91,857.79,1285.73,879.3Zm198.72-62.72c-20.64,28.07-73.22,22.36-102.81,19.88-56.62-4.75-111.82-13.19-166.27-30.08-18.27-5.67-91.25-18.19-94.48-42.38-1.56-11.71,11.71-17.51,26.56-20.55,46.93-18.81,96.63.37,144.62,4.14,27.16,2.13,54.36,6.29,81.17,11.06C1390,761.64,1512.37,778.65,1484.45,816.58Z"/><path class="cls-12" d="M258.26,803.21s-17-1.23-30.77,31.94S266.62,950,501.92,1003.05s576,66.35,752.84,35.48,90.83-75,4.64-64.18l-86.19,10.85s-429.72,10.65-644.94-31.49C324.55,913.81,254,888.31,258.26,803.21Z"/><g class="cls-13"><path class="cls-14" d="M1654.2,783.39c-221.88-37.46-443.57-54.92-664.35-48.47-3.72-25.78-9.85-52.2-27-66.92-2-1.72-6.35,1.88-4.47,3.88,13.92,14.85,18.85,39.25,21.73,63.46-214.54,7-428.2,36.48-640.32,92.58-2,.52-3.6,4.92-.62,4.29,213-44.29,422.52-82.35,640.55-88.38.44,0,.89,0,1.33,0,1.49,14.3,2.52,28.11,4.55,39.4,9.2,50.94,16.61,102.31,28.77,152.64.8,3.23,6.51-.33,6.19-2.88-6.37-52.13-15.54-104-25-155.59-1.81-9.9-3-21.61-4.61-33.76,223-5.15,439.05,19.81,660,45.87C1654,789.83,1658.27,784.07,1654.2,783.39Z"/><path class="cls-10" d="M812.07,817.46c-52,27.85-101.18,60.15-150.68,92.15-3.42,2.21-2.7,7.75,1.7,5.09,50.26-30.47,100.33-61.3,151.07-91C818.55,821.15,817.59,814.5,812.07,817.46Z"/><path class="cls-10" d="M1402.88,866.72c-53.49-18.79-107.84-34.52-162.69-48.93-55.79-14.65-119.31-20.07-171.09-46-2.63-1.32-7.24,3.58-4.24,5.3,40.23,23,85.33,28.31,129.59,39.82,68.15,17.7,135.61,37.89,203.1,57.91C1401.14,875.87,1407.21,868.24,1402.88,866.72Z"/></g><path class="cls-15" d="M844.68,708.25c-31-11.22-61.06-5.15-93.33-2.6-3.93.32-7.85.67-11.77,1-9.12-.25-18.14-.38-26.92,0-46.13,1.93-91.49,11.35-136.57,20.69-44.85,9.27-114.91,10.16-149.74,42.57-2.81,2.61-6.86,11.05.06,11.69,33.92,3.2,65.52-9.1,98.34-16.84,47.22-11.16,94.56-17,142.61-23,37-4.56,74.31-8.78,111.5-10.73,22-1.15,41.87.93,62-9C844.35,720.43,851.35,710.67,844.68,708.25Z"/><path class="cls-15" d="M746.83,790.39c-34.59-2.18-70.15,4.17-104.61,14.38a560.05,560.05,0,0,0-67.91,12.85c-32.21,8.2-77.73,14-96.12,45.32-1.23,2.09-1.77,5.47.05,7.43,7.44,8.09,16.29,8.38,27.47,7.72,45-2.69,88.63,4.82,133.67-1.27,43.76-5.93,99.78-30.44,135.52-57.23C801.23,799.84,759.38,791.17,746.83,790.39Z"/><path class="cls-15" d="M906.66,813.22c-21.69-42.73-106.2,30.33-130.53,44.7-12.53,7.4-34.68,22.7-33,40.14,5.36,53.74,90.19,28,117.23,10.47C885.63,892.15,922.74,844.93,906.66,813.22Z"/><path class="cls-15" d="M1110.68,794.77c-21.64-4.5-39.2.71-49.82,10.8-.12,0-.12-.09-.25-.08-44,3.58,2.87,75.18,17.05,86.62,39.11,31.64,124,33.07,149.15-16.8C1250.63,828.07,1136.56,800.15,1110.68,794.77Z"/><path class="cls-15" d="M1279.69,866.44c-3.54-7.64-11-7.81-18.26-5.59-7,2.16-14.14,9.71-14.17,17.35,0,5.42,3.73,7.82,8.09,8.18,2.29,3.52,7.76,4.57,12.85,1.22C1274.05,883.76,1283.5,874.66,1279.69,866.44Z"/><path class="cls-15" d="M986.11,903.75c-14-2.21-27.45,7.44-36.41,17-8.55,9.08-12.66,27,.72,33.83.35.17.69.24,1.06.38,4.81,2.86,11.18,3.7,16.55,3.26,14.57-1.21,28.88-13,33.08-26.91C1004.78,919,999.52,905.88,986.11,903.75Z"/><path class="cls-15" d="M988.8,872.16l-.54-.44c-3-2.48-6.4-1.92-9.41-.21a14.86,14.86,0,0,0-7.92,6.88c-2.27,4.34-1.32,8.69,3.56,10.09l.88.23c5,1.44,11.22-3.85,13.28-7.9.06-.13.13-.23.19-.36C989.93,878.3,991.1,874.08,988.8,872.16Z"/><path class="cls-15" d="M1387.44,793.25c-18.79-26.27-55.22-29.4-84.89-31.85-25.49-2.11-51.83-5.58-76.31,1.74-15-1.27-30.57,1.05-38.38,12.46-2.13,3.11-3.74,6.62-1.39,10.1,13.52,19.86,60.31,24.95,82,29.37a233.43,233.43,0,0,0,109.16-3.54C1384.37,809.68,1392.31,800.05,1387.44,793.25Z"/><path class="cls-15" d="M1443.91,800.88c.08-8.65-10.81-5.74-14.84-2.27s-8.51,13.85.07,15l.51.07c6.56.88,14.18-5.67,14.25-12.28Z"/><path class="cls-15" d="M1671,823.55c-1.22-7.85-10.55-12.41-17.26-14.1a42.74,42.74,0,0,0-19,0c-12.58-1.37-25.54,1.72-35.68,9.69-12.46,9.82-18.63,27.09-3.8,37.39,9.82,6.81,24.62,7.29,36.12,6.69C1652,862.13,1674.48,846.14,1671,823.55Z"/><path class="cls-15" d="M1478.19,723.26a12.21,12.21,0,0,0,.63-1.37,7,7,0,0,0,0-.91,7.69,7.69,0,0,0,.08-1.72c0-.2,0-.38-.06-.56a3.88,3.88,0,0,0-1.06-2.29l-.12-.11c-.4-.4-.61-.91-1.25-1.14a6.45,6.45,0,0,0-.63-.16,4.28,4.28,0,0,0-.8-.21c-4.92-1.46-9.1-.89-13.93,1.5-3.78,1.87-8.2,8.11-4.94,12.17,2.85,3.58,7.58,3.5,11.79,2.82a162.11,162.11,0,0,1,3.42-1.06c.3-.15.56-.34.85-.51a12.79,12.79,0,0,0,2.09-1.34,14.18,14.18,0,0,0,1.47-1.43c.26-.28.56-.5.79-.79a2,2,0,0,0,.17-.29,11.71,11.71,0,0,0,1.11-1.86C1478,723.75,1478.07,723.54,1478.19,723.26Z"/><path class="cls-15" d="M1217.83,697.06c-10.61-9.31-25.92-10.35-39.41-11.07-12.56-.67-28-1.3-40.06,3.8a49,49,0,0,0-18.9,5.91c-3.89,2.18-8.28,8.08-5,12.46,18,24.28,73.44,18,96.57,5.72C1215.24,711.63,1223.38,701.92,1217.83,697.06Z"/><path class="cls-15" d="M1053.18,659.81a5,5,0,0,0-5.17-2.19c-.51.11-1,.19-1.53.29a12.19,12.19,0,0,0-8.6,6.21c-1.18,2.23-1.8,6.48,1.29,7.66l1.13.43c4.21,1.6,8.71-.82,11.37-4.12a23.3,23.3,0,0,0,3.16-4.88C1055.89,660.91,1054.75,659.91,1053.18,659.81Z"/><path class="cls-16" d="M1202.06,852.91c-4.67-1.71-9.44-3.24-14.24-4.59-26.92-7.5-55.52-9.16-82.72-3.1-13.63,3-29.08,13.57-34.6,26.8-3.22,7.73-3.34,14.5-1.35,20.47-.72,14.48,10.2,25.08,24,33.1,35,20.38,104,20.54,135.18-8.25,11.24-10.39,13.38-19.83,10.33-28.05C1241,872.73,1221.32,859.94,1202.06,852.91Z"/><path class="cls-16" d="M1620.3,796.34c2.16-15.12-15.81-26.81-33.38-33.21q-6.4-2.34-13-4.19c-24.55-6.85-50.65-8.36-75.47-2.84-12.45,2.78-26.54,12.4-31.58,24.46-2.94,7.05-3,13.23-1.22,18.67-.65,13.24,9.3,22.89,21.88,30.22,31.93,18.59,94.94,18.75,123.35-7.52C1621.13,812.44,1623.08,803.83,1620.3,796.34Z"/><path class="cls-16" d="M1067.66,722.19c2.16-15.12-15.81-26.8-33.38-33.21q-6.42-2.36-13-4.19c-24.55-6.86-50.66-8.35-75.48-2.83-12.45,2.77-26.55,12.4-31.56,24.45-3,7.06-3.07,13.22-1.25,18.68-.64,13.23,9.31,22.88,21.89,30.21,31.94,18.59,94.95,18.75,123.36-7.53C1068.48,738.3,1070.43,729.69,1067.66,722.19Z"/><path class="cls-16" d="M757,889.57c-15.43-.91-19.76-16.45-33.55-18.46-.47-.06-.83,0-1.28,0-.1-.29-.22-.57-.33-.86,6.91-15.86,15.24-44.17-6.44-42.5-8.11.62-12.6,7.3-14.8,14.82-7.78-5.73-16.83,3.4-17.38,13.4,3.35,12.14,10.95,23.8,20.66,30.63a59,59,0,0,0-2.54,11.5c-1,8.17-.5,16.29.84,21.24,9.56,35.24,70.69,41.47,91.75,15.44,7.76-9.58,17.27-26.95,12-39.4C798.3,877.19,770.48,890.39,757,889.57Z"/><path class="cls-16" d="M1355.88,742.89c5.16-8.1,11-22.39,5.85-31.58-7.53-13.4-27.9-.73-38.43-.17-12,.64-16.75-11-27.61-11.33-.35,0-.64.11-1,.12-.11-.21-.21-.43-.33-.64,4-12.89,7.91-35.55-8.72-32.35-6.23,1.21-9.13,6.78-10.16,12.78-6.54-3.74-12.75,4.13-12.28,11.92,3.67,9.1,10.59,17.46,18.71,21.9a44.78,44.78,0,0,0-1,9.12c0,6.41,1,12.65,2.53,16.37C1294,765.47,1341.87,764.91,1355.88,742.89Z"/><path class="cls-16" d="M1411.23,811.56c-22.26-3.67-26.43,31.32-35.43,43.9-10.29,14.36-28,9.12-38.3,21.26a13.51,13.51,0,0,0-.78,1.24l-1-.2c-11.16-16.35-33.51-41.66-45.1-19.66-4.33,8.25-.6,16.66,5.33,23.38-10.25,4-6.94,18.37,2.43,25,13.79,4.15,29.7,3.88,42.24-1.36a66.34,66.34,0,0,0,9.57,9.45c7.32,5.92,15.48,10.4,21.08,12.11,40,12.21,83.2-43.22,70.81-79.46C1437.5,833.85,1426.47,814.07,1411.23,811.56Z"/><path class="cls-16" d="M664.39,722.4c-17.14-2.83-20.35,24.13-27.29,33.81-7.93,11.07-21.53,7-29.51,16.39-.25.31-.37.64-.6,1l-.79-.16c-8.6-12.6-25.8-32.1-34.73-15.14-3.34,6.36-.47,12.84,4.11,18-4.4,1.74-5.48,5.93-4.39,10.18-8.94-5.93-22.14-8.88-34.65-9.8q-7.47-.54-15-.52c-27.93.13-55.9,6.39-80.4,19.64-12.29,6.65-24.27,21-25.95,35.24-1,8.3.75,14.85,4.28,20.06,3.29,14.13,16.68,21.33,32.13,25.28,39.23,10,105.7-8.68,127.76-44.89,8-13.07,7.46-22.74,2.29-29.8a19.31,19.31,0,0,0-1.71-5.6c10,2.47,21.09,2.13,30-1.6a51,51,0,0,0,7.38,7.3c5.64,4.58,11.92,8,16.24,9.33,30.78,9.4,64.1-33.3,54.55-61.23C684.64,739.58,676.15,724.34,664.39,722.4Z"/><path class="cls-16" d="M656.65,887.06c-11.26-15.31-58.07,5.45-51.16,25.45A15.14,15.14,0,0,0,607.2,916a11.89,11.89,0,0,0,.5,5.24c3.13,9.06,14.12,14.24,22.78,15.89,12.06,2.31,22.55-5.35,28.1-15.5,3.82-7,5.15-16.25,1.4-23.5A18.89,18.89,0,0,0,656.65,887.06Z"/><path class="cls-16" d="M1044,809.69c-2.57-18.82-53.61-23-57.11-2.15a16,16,0,0,0-.17,3.85,12.34,12.34,0,0,0-2.06,4.84c-1.6,9.45,5.59,19.24,12.41,24.86,9.47,7.8,22.35,6.1,32.08-.15,6.75-4.32,12.64-11.89,12.7-20.12A18.81,18.81,0,0,0,1044,809.69Z"/><path class="cls-16" d="M924.38,948.35c-2.1-15.35-43.69-18.77-46.55-1.78a12.83,12.83,0,0,0-.14,3.15,10.24,10.24,0,0,0-1.68,3.94c-1.29,7.71,4.56,15.71,10.1,20.27,7.73,6.37,18.23,5,26.16-.13,5.46-3.49,10-9.61,10.16-16.23A15.45,15.45,0,0,0,924.38,948.35Z"/><path class="cls-16" d="M1315.14,777.59c-1.43-10.43-29.75-12.77-31.69-1.18a8.74,8.74,0,0,0,.08,1.91,6.9,6.9,0,0,0-1.32,2.92c-.88,5.24,3.1,10.67,6.88,13.8,5.26,4.32,12.4,3.36,17.81-.1,3.71-2.37,6.81-6.55,6.91-11.06A10.64,10.64,0,0,0,1315.14,777.59Z"/><path class="cls-16" d="M1481.5,895.57c-1.42-10.43-29.75-12.77-31.71-1.18a8.68,8.68,0,0,0,.09,1.9,6.59,6.59,0,0,0-1.31,2.92c-.88,5.24,3.1,10.68,6.87,13.79,5.26,4.34,12.42,3.39,17.82-.09,3.71-2.36,6.81-6.54,6.91-11A10.51,10.51,0,0,0,1481.5,895.57Z"/><path class="cls-16" d="M1065.78,789.91c5.26,4.33,12.41,3.38,17.81-.09,3.71-2.38,6.81-6.55,6.91-11.06a10.42,10.42,0,0,0,1.32-6.29c-1.41-10.42-29.74-12.76-31.7-1.19a9.38,9.38,0,0,0,.09,1.91,6.7,6.7,0,0,0-1.31,2.92C1058,781.35,1062,786.78,1065.78,789.91Z"/><path class="cls-16" d="M800.53,730.85c5.27,4.34,12.42,3.39,17.81-.09,3.72-2.37,6.82-6.54,6.92-11.06a10.29,10.29,0,0,0,1.31-6.28c-1.41-10.43-29.73-12.76-31.69-1.18a8.5,8.5,0,0,0,.09,1.89,6.88,6.88,0,0,0-1.31,2.94C792.77,722.31,796.75,727.74,800.53,730.85Z"/><path class="cls-16" d="M394.88,830.24c-1.41-10.45-29.75-12.79-31.7-1.19a10.1,10.1,0,0,0,.07,1.9,7.09,7.09,0,0,0-1.3,2.93c-.88,5.23,3.11,10.67,6.88,13.78,5.25,4.34,12.42,3.38,17.8-.09,3.72-2.36,6.83-6.53,6.93-11.05A10.46,10.46,0,0,0,394.88,830.24Z"/><path class="cls-16" d="M622,864.08c5.25,4.34,12.41,3.38,17.8-.09,3.72-2.37,6.83-6.53,6.93-11a10.6,10.6,0,0,0,1.32-6.28c-1.43-10.44-29.75-12.79-31.7-1.21a8.74,8.74,0,0,0,.08,1.91,6.87,6.87,0,0,0-1.31,2.92C614.2,855.54,618.18,861,622,864.08Z"/><path class="cls-16" d="M1555.79,878.22c-2.11-15.32-43.7-18.74-46.56-1.74a12.72,12.72,0,0,0-.13,3.14,10.15,10.15,0,0,0-1.68,4c-1.29,7.69,4.55,15.68,10.09,20.25,7.74,6.37,18.24,5,26.17-.13,5.45-3.49,10-9.61,10.16-16.26A15.54,15.54,0,0,0,1555.79,878.22Z"/><path class="cls-16" d="M1170.24,745.85c7.72,6.35,18.23,4.95,26.15-.13,5.45-3.49,10-9.62,10.16-16.25a15.58,15.58,0,0,0,1.94-9.22c-2.08-15.33-43.68-18.77-46.56-1.75a13.77,13.77,0,0,0-.12,3.14,10,10,0,0,0-1.68,4C1158.83,733.28,1164.67,741.27,1170.24,745.85Z"/><path class="cls-16" d="M728.92,767.43a80.44,80.44,0,0,0,13.6,11.88c13.42-5.83,26-13.33,39.38-19.17a141.86,141.86,0,0,1,13.8-5.07c2.4-1.61,5.66-1.73.43-7.34,0,0,.08,0,.11,0-6.58-5.12-13.33-10-19.1-16-1.62.7-3.34,1.39-4.9,2.1-13.78,6.25-31.71,14.63-42.78,26.3h0s-.09.07-.12.11C728.42,761,729.78,766.55,728.92,767.43Z"/><path class="cls-16" d="M1161.29,798.9l0,0-.13.1c-.94.86.43,6.35-.43,7.26a81.16,81.16,0,0,0,13.59,11.86c13.42-5.83,26-13.32,39.39-19.18a145.11,145.11,0,0,1,13.8-5.05c2.38-1.62,5.65-1.72.41-7.34a.25.25,0,0,0,.13,0c-6.57-5.12-13.33-10-19.1-16-1.63.7-3.35,1.39-4.9,2.1C1190.28,778.86,1172.36,787.23,1161.29,798.9Z"/><path class="cls-16" d="M564,907.4c-3.6-7.51-7.47-14.9-10-22.86-1.77-.09-3.61-.23-5.32-.31-15.13-.53-34.89-1.06-50,4.46v0l-.16,0c-1.22.35-2.46,5.88-3.63,6.31a82.54,82.54,0,0,0,6.88,16.67c14.62.76,29.2-.35,43.8.41a140,140,0,0,1,14.62,1.63c2.86-.4,5.82,1,3.65-6.39Z"/><path class="cls-16" d="M1335.26,949.92c-3.61-7.51-7.47-14.91-10-22.87-1.77-.08-3.61-.23-5.33-.29-15.12-.55-34.9-1-50,4.44l0,0-.17,0c-1.21.35-2.45,5.87-3.6,6.29a79.29,79.29,0,0,0,6.87,16.7c14.61.76,29.18-.35,43.79.38a145.91,145.91,0,0,1,14.62,1.64c2.86-.38,5.83,1,3.64-6.37Z"/><path class="cls-16" d="M1432.49,773.22a146.22,146.22,0,0,1,14.62,1.63c2.85-.39,5.82,1,3.65-6.38h.12c-3.61-7.5-7.47-14.9-10-22.86-1.77-.09-3.62-.23-5.34-.3-15.12-.54-34.9-1.06-50,4.45,0,0,0,0,0,0l-.17,0c-1.21.35-2.44,5.87-3.61,6.3a80.88,80.88,0,0,0,6.87,16.68C1403.3,773.58,1417.87,772.48,1432.49,773.22Z"/><path class="cls-16" d="M1111.76,969.82c-3.6-7.52-7.47-14.91-10-22.87-1.77-.09-3.6-.25-5.32-.31-15.12-.53-34.89-1.06-50,4.45v0a.76.76,0,0,0-.16,0c-1.22.37-2.45,5.89-3.62,6.32a81.46,81.46,0,0,0,6.87,16.67c14.62.78,29.2-.33,43.8.41a142.7,142.7,0,0,1,14.62,1.62c2.86-.38,5.82,1,3.65-6.37Z"/><path class="cls-16" d="M943.9,843.7c4.18-8.44,6.75-17.37,7.19-23.23,3.14-41.64-60.43-71.69-93.07-51.63-12,7.38-28.88,22.48-28,37.91,0,.4.13.72.18,1.1-15-.53-34.13-.91-48.89,4.49v0a1.1,1.1,0,0,1-.16,0c-1.22.36-2.45,5.88-3.62,6.31a82.08,82.08,0,0,0,6.87,16.69c14.62.76,29.19-.34,43.8.39a142.71,142.71,0,0,1,14.62,1.63c2.86-.38,5.82,1,3.65-6.37h.12c-1.31-2.74-2.62-5.45-3.92-8.19,11.84,5,29,5,38,8.82,16.27,6.88,15,25.25,29.16,32.69.46.24.92.29,1.36.48,0,.37,0,.71,0,1.06-13.5,14.48-33.27,41.83-9.26,48.31,9,2.42,16.38-3.09,21.63-10.35,6.2,9.15,19.45,2.75,23.84-7.83,1-14.38-2.75-29.84-10.61-40.93A65.83,65.83,0,0,0,943.9,843.7Z"/><path class="cls-17" d="M688.55,802.26c-8.28-6.2-20.76-3.58-30.25,2.07-1.52.49-2.87,1-3.77,1.31-9.46,3.54-17.94,11.92-15.35,22.68,2.39,9.89,16.64,7.63,23.57,5.92,9.4-2.33,20.12-7.72,26-15.74C692.59,813.18,694.46,806.7,688.55,802.26Z"/><path class="cls-17" d="M587.55,843.58a.5.5,0,0,1,0-.13,6,6,0,0,0-.59-1.94c-2.22-4.23-9-1.36-11.73,2-3.84,4.81-1.48,11,5.13,9a2.19,2.19,0,0,0,.34-.1c3.06-1,7.4-4.86,6.94-8.5A1.26,1.26,0,0,1,587.55,843.58Z"/><path class="cls-17" d="M848.59,849.17c-1.79-16.4-20.68-8.72-28.45-1.56-3.68,3.37-7,7.86-7,13.09a7.81,7.81,0,0,0,.56,2.52,19,19,0,0,0,2.78,8c2.79,4.54,10.36,3.73,14.45,2.43C840.11,870.68,849.7,859.25,848.59,849.17Z"/><path class="cls-17" d="M841.92,884.38c-.33-1.72-2.69-2.44-4.17-2.18l-.72.16c-4.66.86-9.95,5.37-8.67,10.61,0,.2.1.38.15.59,1.17,4.72,7.84,2,10.09.1l.82-.7C841.45,891.26,843.06,886.75,841.92,884.38Z"/><path class="cls-17" d="M1083.13,809.63a17.47,17.47,0,0,0-12.44,9,9.91,9.91,0,0,0-.9,7.49c.42,3.33,2.42,6.3,6.87,7.66,8.44,2.58,17.89-5.84,20.4-13.15C1100.38,811,1090.42,808.36,1083.13,809.63Z"/><path class="cls-17" d="M1128.16,818c-3-1.57-8.75,3.16-9.45,5.83-.09.33-.16.65-.25,1-.56,2.19.31,4.56,2.79,4.85,3,.37,5.09-1.16,7.37-2.9C1133.21,823.27,1131.63,818.74,1128.16,818Z"/><path class="cls-17" d="M1255.87,770.57c-3.59-2.41-9.14-.89-13.15.66-4.76.77-9.33,3.21-11.82,6.93-3,4.56-4.26,9-2.28,14.32a9.83,9.83,0,0,0,8.81,6.54c10.15.07,19.35-8.06,22.15-17.64C1260.88,777,1259.62,773.1,1255.87,770.57Z"/><path class="cls-17" d="M1333.76,786.55c-7.45-.55-17.42,14.05-7.79,14.75C1333.43,801.84,1343.38,787.24,1333.76,786.55Z"/><path class="cls-17" d="M1141.65,701a3.08,3.08,0,0,0-2.52-1.34h0c-.25,0-.44-.09-.7-.09a2.14,2.14,0,0,0-.76.07c-3.39.8-6.57,3-7.56,6.52-.88,3.24,1.29,5.18,4.39,5,3.66-.13,6.09-3.23,7.78-6.07A3.1,3.1,0,0,0,1141.65,701Z"/><path class="cls-17" d="M1090.72,696l-.88-.26c-3.34-1-7.78,2.16-9.65,4.61l-.93,1.21c-1.51,2-1.7,3.63-1.14,4.75l-.19.13c.08.44.16.89.22,1.32,1.26,7.53,13.21.19,14.7-3.51.14-.35.28-.69.42-1C1094.56,700,1094.46,697.11,1090.72,696Z"/><path class="cls-17" d="M1566.62,851.76c-5.6.22-10.88,2.16-14.28,6.85h.06c-3.79,4.88-2.55,11.25,4.11,10.75a9.51,9.51,0,0,0,5.22.26c5.23-1.18,10.16-4.61,11.64-10C1574.75,854.57,1571.4,851.58,1566.62,851.76Z"/><path class="cls-17" d="M1652.53,821.45c-12.47-10.48-30.72-7.35-42.07,3.71-.78.75-1.53,1.58-2.26,2.43a31.61,31.61,0,0,0-4.58,3.49c-3.64,3.38-7.78,9-5.86,14.4,3.43,9.45,13.54,11.54,22.57,10.65,11.31-1.14,23.14-7.85,29.79-17C1653.07,835.07,1657.85,825.91,1652.53,821.45Z"/><path class="cls-18" d="M516.54,776.45c-27.94.12-55.91,6.38-80.39,19.63-12.31,6.66-24.29,21-26,35.24-2.59,22,13.65,31.64,32.8,36.54,39.22,10,105.7-8.68,127.76-44.89,19.61-32.15-11.66-44-39.22-46C526.53,776.59,521.53,776.43,516.54,776.45Z"/><path class="cls-19" d="M512.91,767.65C485,767.79,457,774,432.5,787.28c-12.28,6.65-24.26,21-25.95,35.24-2.6,22,13.65,31.64,32.78,36.53,39.23,10,105.7-8.67,127.77-44.89,19.61-32.15-11.65-44-39.23-46Q520.42,767.61,512.91,767.65Z"/><path class="cls-20" d="M442.63,826.53c0-2.16-1.86-3.57-3.8-4-2.83-.65-5.55.89-7.58,2.7-2.62,2.36-6.86,11.36.05,11.57a11.45,11.45,0,0,0,6.72-1.73C440.48,833.63,444,829.75,442.63,826.53Z"/><path class="cls-20" d="M442.62,826.53h0c0,.16.06.28.05.46C442.66,826.83,442.65,826.67,442.62,826.53Z"/><path class="cls-20" d="M470.92,800.69a2.76,2.76,0,0,0-2.71-2.32c-7.22-.52-12.2,11.8-4.35,10.84.24,0,.42-.21.65-.27a3.67,3.67,0,0,0,2.31-.76,5,5,0,0,0,.5-.41,6.3,6.3,0,0,0,.68-.5,9,9,0,0,0,2.37-2.75A5.77,5.77,0,0,0,470.92,800.69Z"/><path class="cls-20" d="M496.81,829.21c-3.44-.48-6.48-1.08-9.92.32-6.67,2.71-10.06,7.66-12.56,14.05-1.34,3.4-.27,5.91,1.78,7.48,1,1.85,3.14,2.72,5.44,3,.12,0,.17.09.31.1a17.21,17.21,0,0,0,16.54-6.44,12,12,0,0,0,3-8.13C503.24,835,503.15,830,496.81,829.21Z"/><path class="cls-20" d="M538.06,796.05c-8.48-.61-19.84,16-8.86,16.82C537.69,813.49,549,796.85,538.06,796.05Z"/><path class="cls-20" d="M490,795.15a9.36,9.36,0,0,0-8.63,5.14c-1.26,2.4-1.15,6.48,2.37,6.73a9.42,9.42,0,0,0,8.64-5.14C493.66,799.48,493.55,795.39,490,795.15Z"/><path class="cls-20" d="M528.44,830.19c-.18-.27-.36-.56-.56-.84-1.76-2.63-5.85.84-6.77,2.44-.27.43-.52.86-.78,1.31C515.7,841,533.43,837.64,528.44,830.19Z"/><path class="cls-20" d="M439.58,792c-4.11-.31-9.61,7.78-4.29,8.16C439.41,800.46,444.92,792.39,439.58,792Z"/><path class="cls-18" d="M1180.23,849.3c-26.92-7.52-55.51-9.16-82.71-3.09-13.64,3-29.1,13.56-34.61,26.79-8.5,20.42,4.48,34.16,21.55,44.11,35,20.38,104,20.55,135.19-8.25,27.65-25.55.8-45.5-25.17-55C1189.8,852.17,1185.05,850.66,1180.23,849.3Z"/><path class="cls-19" d="M1179.15,839.83c-26.92-7.51-55.52-9.14-82.72-3.1-13.63,3-29.09,13.59-34.6,26.8-8.51,20.42,4.48,34.17,21.54,44.12,35,20.38,104.05,20.54,135.18-8.24,27.65-25.57.82-45.51-25.15-55C1188.71,842.73,1184,841.18,1179.15,839.83Z"/><path class="cls-20" d="M1095.43,877.27c.59-2.09-.8-4-2.55-4.91-2.54-1.41-5.58-.67-8,.52-3.17,1.55-9.7,9-3.11,11.15a11.57,11.57,0,0,0,6.94.16C1091.44,883.5,1095.89,880.73,1095.43,877.27Z"/><path class="cls-20" d="M1095.44,877.26h0a2.13,2.13,0,0,1-.06.42C1095.4,877.55,1095.42,877.41,1095.44,877.26Z"/><path class="cls-20" d="M1129.72,860.15a2.77,2.77,0,0,0-2-3c-6.8-2.46-15,8-7.14,9.25a4.42,4.42,0,0,0,.7-.08,3.7,3.7,0,0,0,2.43-.1,5.39,5.39,0,0,0,.6-.25,7,7,0,0,0,.78-.32,9,9,0,0,0,3-2A5.81,5.81,0,0,0,1129.72,860.15Z"/><path class="cls-20" d="M1146.83,894.64c-3.19-1.38-5.94-2.8-9.64-2.4-7.16.8-11.76,4.62-15.92,10.08-2.22,2.92-1.88,5.62-.32,7.7.46,2.05,2.26,3.46,4.4,4.31.13.06.16.13.29.19a17.17,17.17,0,0,0,17.67-1.68,11.86,11.86,0,0,0,5.07-7C1151.43,902,1152.7,897.19,1146.83,894.64Z"/><path class="cls-20" d="M1195.57,874c-8-2.92-23.47,10-13.12,13.76C1190.45,890.72,1205.92,877.82,1195.57,874Z"/><path class="cls-20" d="M1149.62,860a9.41,9.41,0,0,0-9.71,2.57c-1.86,2-2.87,5.91.45,7.13a9.4,9.4,0,0,0,9.7-2.59C1151.93,865.2,1152.94,861.24,1149.62,860Z"/><path class="cls-20" d="M1177,904.25c-.1-.33-.2-.65-.32-1-1-3-5.84-.8-7.19.47l-1.09,1.07C1161.76,911.17,1179.75,912.77,1177,904.25Z"/><path class="cls-20" d="M1102,843.2c-3.88-1.39-11.37,4.85-6.36,6.69C1099.48,851.31,1107,845,1102,843.2Z"/><path class="cls-18" d="M1566.24,759.09c-24.56-6.86-50.66-8.35-75.47-2.83-12.45,2.78-26.57,12.4-31.59,24.46-7.77,18.63,4.09,31.17,19.66,40.26,31.94,18.59,95,18.75,123.36-7.53,25.24-23.33.74-41.53-23-50.17C1575,761.71,1570.62,760.32,1566.24,759.09Z"/><path class="cls-19" d="M1565.24,750.46c-24.56-6.87-50.65-8.36-75.47-2.83-12.45,2.76-26.55,12.39-31.58,24.45-7.76,18.63,4.08,31.19,19.67,40.26,31.92,18.59,94.92,18.76,123.34-7.52,25.24-23.34.74-41.53-22.94-50.18Q1571.84,752.3,1565.24,750.46Z"/><path class="cls-20" d="M1488.86,784.63a4.08,4.08,0,0,0-2.32-4.51c-2.33-1.28-5.11-.59-7.34.49-2.89,1.41-8.86,8.26-2.84,10.18a10.52,10.52,0,0,0,6.33.15C1485.21,790.29,1489.27,787.77,1488.86,784.63Z"/><path class="cls-20" d="M1488.86,784.61s0,0,0,0a1.92,1.92,0,0,1-.07.38C1488.81,784.87,1488.84,784.74,1488.86,784.61Z"/><path class="cls-20" d="M1520.14,769a2.51,2.51,0,0,0-1.8-2.71c-6.21-2.27-13.65,7.3-6.52,8.43.21,0,.41-.09.63-.07a3.51,3.51,0,0,0,2.22-.1c.19-.06.38-.17.56-.23a5.3,5.3,0,0,0,.71-.29,8.21,8.21,0,0,0,2.77-1.81A5.29,5.29,0,0,0,1520.14,769Z"/><path class="cls-20" d="M1535.76,800.46c-2.91-1.25-5.43-2.55-8.81-2.17-6.52.71-10.73,4.2-14.52,9.19-2,2.67-1.72,5.13-.3,7,.43,1.89,2.07,3.17,4,3.94.12.06.14.13.26.16a15.62,15.62,0,0,0,16.13-1.52,10.93,10.93,0,0,0,4.65-6.39C1540,807.15,1541.11,802.79,1535.76,800.46Z"/><path class="cls-20" d="M1580.24,781.67c-7.29-2.66-21.42,9.12-12,12.54C1575.55,796.87,1589.67,785.11,1580.24,781.67Z"/><path class="cls-20" d="M1538.3,768.89a8.57,8.57,0,0,0-8.86,2.36c-1.7,1.79-2.63,5.38.41,6.49a8.53,8.53,0,0,0,8.85-2.35C1540.4,773.6,1541.33,770,1538.3,768.89Z"/><path class="cls-20" d="M1563.28,809.24c-.1-.3-.18-.58-.29-.88-.88-2.75-5.34-.73-6.56.44l-1,1C1549.39,815.56,1565.8,817,1563.28,809.24Z"/><path class="cls-20" d="M1494.81,753.53c-3.53-1.28-10.39,4.44-5.81,6.1C1492.53,760.93,1499.39,755.21,1494.81,753.53Z"/><path class="cls-18" d="M1013.6,685c-24.55-6.87-50.67-8.37-75.48-2.84-12.45,2.77-26.55,12.4-31.58,24.47-7.76,18.61,4.08,31.17,19.65,40.24,31.94,18.6,94.95,18.76,123.37-7.51,25.23-23.34.74-41.53-23-50.18C1022.32,687.57,1018,686.16,1013.6,685Z"/><path class="cls-19" d="M1012.61,676.31c-24.55-6.86-50.67-8.36-75.48-2.84-12.45,2.78-26.55,12.39-31.58,24.47-7.77,18.63,4.09,31.17,19.66,40.24,31.94,18.6,94.93,18.77,123.35-7.52,25.24-23.33.75-41.52-23-50.16Q1019.19,678.15,1012.61,676.31Z"/><path class="cls-20" d="M936.22,710.47c.53-1.92-.75-3.61-2.33-4.49-2.33-1.28-5.09-.6-7.33.49-2.9,1.39-8.86,8.24-2.83,10.16a10.56,10.56,0,0,0,6.32.17C932.58,716.15,936.62,713.62,936.22,710.47Z"/><path class="cls-20" d="M936.23,710.46s0,0,0,0a2.11,2.11,0,0,1-.07.4A2.29,2.29,0,0,1,936.23,710.46Z"/><path class="cls-20" d="M967.51,694.84a2.51,2.51,0,0,0-1.81-2.72c-6.2-2.26-13.65,7.31-6.51,8.44.2,0,.4-.08.62-.07a3.46,3.46,0,0,0,2.23-.1,5.15,5.15,0,0,0,.54-.23c.25-.08.47-.18.72-.28a8.52,8.52,0,0,0,2.77-1.83A5.25,5.25,0,0,0,967.51,694.84Z"/><path class="cls-20" d="M983.11,726.32c-2.91-1.26-5.43-2.56-8.79-2.18-6.54.7-10.74,4.2-14.54,9.2-2,2.66-1.71,5.12-.29,7,.44,1.88,2.06,3.17,4,3.95.12,0,.15.12.26.17a15.71,15.71,0,0,0,16.14-1.53,11,11,0,0,0,4.63-6.39C987.31,733,988.47,728.65,983.11,726.32Z"/><path class="cls-20" d="M1027.59,707.51c-7.29-2.65-21.41,9.13-12,12.55C1022.92,722.73,1037,711,1027.59,707.51Z"/><path class="cls-20" d="M985.66,694.73a8.59,8.59,0,0,0-8.86,2.37c-1.7,1.79-2.63,5.38.4,6.49a8.57,8.57,0,0,0,8.86-2.35C987.76,699.44,988.7,695.84,985.66,694.73Z"/><path class="cls-20" d="M1010.64,735.09l-.29-.89c-.89-2.73-5.34-.73-6.56.44-.33.33-.67.65-1,1C996.74,741.41,1013.16,742.86,1010.64,735.09Z"/><path class="cls-20" d="M942.16,679.38c-3.53-1.29-10.37,4.44-5.79,6.1C939.89,686.77,946.74,681.05,942.16,679.38Z"/><path class="cls-20" d="M692.66,889.62c-1,8.16-.5,16.29.84,21.23,9.54,35.25,70.69,41.48,91.75,15.44,7.74-9.58,17.26-26.95,12-39.4-7.64-18.19-35.47-5-49-5.8-15.41-.93-19.76-16.44-33.56-18.46C700.65,860.61,694.39,875.21,692.66,889.62Z"/><path class="cls-21" d="M785.25,926.29c7.74-9.58,17.26-26.95,12-39.4-7.64-18.19-35.47-5-49-5.8-15.41-.93-19.76-16.44-33.56-18.46-14.1-2-20.36,12.58-22.09,27-1,8.16-.5,16.29.84,21.23C703,946.1,764.19,952.33,785.25,926.29Zm-62.5-40c8.26-1.2,10,6.41,9.55,14.27,4.29-5.93,9.16-11.61,15.81-9,7.33,2.9,8.81,8.86,8.24,15.32a55.23,55.23,0,0,0,4-8.55c1.45-3.83,3-6.58,6.22-9.17,4.78-3.88,15.42-3.67,20.15.11,5.43,4.38,5.5,17.09,3.29,22.79-3.23,8.41-10.84,15.11-18.33,19.7-13.85,8.52-33.79,11-48.75,3.74-8.19-3.95-14.43-12.6-16.56-21.42C703.31,901.22,708.53,888.39,722.75,886.33Z"/><path class="cls-22" d="M695.64,878.51c10.93,3.3,14.87-6.44,18.16-15.07-.21-.55-.43-1.11-.65-1.66,6.92-15.86,15.24-44.18-6.43-42.52-8.12.63-12.6,7.33-14.8,14.82-7.79-5.71-16.84,3.41-17.38,13.41C677.94,859.82,685.71,871.71,695.64,878.51Z"/><path class="cls-23" d="M695.64,878.51c10.93,3.3,14.87-6.44,18.16-15.07-.21-.55-.43-1.11-.65-1.66,6.92-15.86,15.24-44.18-6.43-42.52-8.12.63-12.6,7.33-14.8,14.82-7.79-5.71-16.84,3.41-17.38,13.41C677.94,859.82,685.71,871.71,695.64,878.51Zm4.68-34.45c.63-5.76,1.33-14.28,7-17.57,6.73-3.94,10.45,5.48,9.91,10.63-.85,8.25-4.57,15.68-5.86,23.78a4.58,4.58,0,0,1-4.52,4.12c-2,1.8-5,2-6-1.35C699,857.72,699.66,850.13,700.32,844.06Zm-13.75,11.49c-.46-3,3.67-9.81,6.93-5.87,2.91,3.52,3.88,7.61,5,11.93s-4.68,8.78-7.14,5.61a2.56,2.56,0,0,1-2-1.85A44.14,44.14,0,0,1,686.57,855.55Z"/><path class="cls-24" d="M775.31,921.4c3.21-2.43,6.8-7.12,7.6-11.71a19.66,19.66,0,0,0,1.45-4.39c.75-4-.31-9.73-5.43-9.87-9.11-.22-16.27,13.48-17.18,21.14C760.57,926.36,769.58,925.74,775.31,921.4Z"/><path class="cls-24" d="M741.35,926.51c3.46.44,6.31-3.06,7.88-5.57a8.65,8.65,0,0,0,1.23-4.36c.14-.45.41-.8.54-1.28.45-1.57.85-4.34-1.08-5.25-5.89-2.74-11.89,4.27-12.67,9.69C736.8,922.72,738.12,926.09,741.35,926.51Z"/><path class="cls-24" d="M721.13,916.26c4.19-1.15,6.83-11.08,1.4-9.6C718.35,907.83,715.73,917.76,721.13,916.26Z"/><path class="cls-20" d="M1272.29,714.18c0,6.41,1,12.66,2.53,16.36,10.5,26.45,58.39,25.87,72.39,3.87,5.17-8.12,11-22.39,5.86-31.58-7.53-13.4-27.91-.72-38.43-.17-12,.65-16.75-11-27.62-11.33C1275.93,691,1272.36,702.87,1272.29,714.18Z"/><path class="cls-21" d="M1347.21,734.41c5.17-8.12,11-22.39,5.86-31.58-7.53-13.4-27.91-.72-38.43-.17-12,.65-16.75-11-27.62-11.33-11.09-.32-14.66,11.54-14.73,22.85,0,6.41,1,12.66,2.53,16.36C1285.32,757,1333.21,756.41,1347.21,734.41ZM1295.29,709c6.3-1.66,8.29,4.09,8.68,10.2,2.77-5,6-9.81,11.43-8.35,5.94,1.59,7.61,6.09,7.73,11.13a43.74,43.74,0,0,0,2.38-7,15.29,15.29,0,0,1,4-7.66c3.35-3.42,11.61-4.19,15.59-1.68,4.61,2.91,5.78,12.75,4.58,17.37-1.77,6.77-7.06,12.64-12.45,16.85-10,7.84-25.2,11.49-37.42,7.21-6.7-2.34-12.3-8.5-14.73-15.14C1281.57,722.22,1284.48,711.83,1295.29,709Z"/><path class="cls-22" d="M1273.63,705.32c8.74,1.6,10.94-6.29,12.71-13.27-.19-.42-.42-.83-.62-1.24,3.94-12.9,7.89-35.55-8.75-32.35-6.22,1.2-9.11,6.78-10.14,12.79-6.54-3.74-12.75,4.12-12.28,11.91C1258.27,692.41,1265.34,700.93,1273.63,705.32Z"/><path class="cls-23" d="M1273.63,705.32c8.74,1.6,10.94-6.29,12.71-13.27-.19-.42-.42-.83-.62-1.24,3.94-12.9,7.89-35.55-8.75-32.35-6.22,1.2-9.11,6.78-10.14,12.79-6.54-3.74-12.75,4.12-12.28,11.91C1258.27,692.41,1265.34,700.93,1273.63,705.32Zm.58-27.1c0-4.51-.23-11.17,3.84-14.22,4.86-3.63,8.58,3.34,8.61,7.36.07,6.48-2.16,12.56-2.44,18.94a3.55,3.55,0,0,1-3.14,3.59c-1.41,1.58-3.69,2-4.79-.52C1274.35,688.93,1274.22,683,1274.21,678.22Zm-9.64,10.12c-.61-2.26,2-7.93,4.85-5.16,2.56,2.46,3.68,5.54,4.94,8.81s-2.85,7.21-5,5a2,2,0,0,1-1.75-1.25A34.31,34.31,0,0,1,1264.57,688.34Z"/><path class="cls-24" d="M1339.1,731.5a16.39,16.39,0,0,0,4.85-9.74,15.18,15.18,0,0,0,.73-3.53c.22-3.18-1.1-7.5-5.07-7.16-7.07.62-11.41,11.87-11.45,17.88C1328.13,736.63,1335,735.35,1339.1,731.5Z"/><path class="cls-24" d="M1313.26,738.46c2.72,0,4.61-2.93,5.6-5a6.78,6.78,0,0,0,.58-3.49c.08-.36.24-.66.3-1,.2-1.26.27-3.45-1.3-4-4.81-1.63-8.84,4.35-9,8.6C1309.41,735.91,1310.71,738.4,1313.26,738.46Z"/><path class="cls-24" d="M1296.69,732.3c3.15-1.27,4.3-9.18.23-7.55C1293.79,726,1292.64,733.93,1296.69,732.3Z"/><path class="cls-20" d="M1341.51,906.07c7.32,5.93,15.47,10.38,21.08,12.11,40,12.22,83.2-43.21,70.81-79.45-4.56-13.35-15.59-33.13-30.84-35.66-22.27-3.67-26.42,31.32-35.43,43.91-10.28,14.36-28,9.12-38.3,21.26C1318.3,880.67,1328.63,895.64,1341.51,906.07Z"/><path class="cls-21" d="M1433.4,838.73c-4.56-13.35-15.59-33.13-30.84-35.66-22.27-3.67-26.42,31.32-35.43,43.91-10.28,14.36-28,9.12-38.3,21.26-10.53,12.43-.2,27.4,12.68,37.83,7.32,5.93,15.47,10.38,21.08,12.11C1402.54,930.4,1445.79,875,1433.4,838.73Zm-76.75,36.21c3.86-8.74,12.26-5.73,19.63-.58-3.15-7.76-5.68-15.94.9-20.79,7.28-5.34,14-3.14,19.88,1.36a65.5,65.5,0,0,0-5.82-9.11c-2.82-3.75-4.55-7-5.11-11.62-.85-7,5.84-17.16,12.38-19.43,7.55-2.61,19.89,5.07,24.08,10.67,6.17,8.26,8,19.7,7.93,29.74-.19,18.61-10,39.42-26.06,49.5-8.82,5.53-21,6.32-30.84,3C1359.24,902.82,1350,889.94,1356.65,874.94Z"/><path class="cls-22" d="M1332.58,896.42c9.85-8.57,2.82-18.32-3.54-26.74-.68-.16-1.33-.27-2-.4-11.16-16.36-33.51-41.67-45.09-19.65-4.34,8.24-.6,16.67,5.33,23.36-10.27,4.06-6.94,18.37,2.42,25C1303.71,902.2,1319.94,901.9,1332.58,896.42Z"/><path class="cls-23" d="M1332.58,896.42c9.85-8.57,2.82-18.32-3.54-26.74-.68-.16-1.33-.27-2-.4-11.16-16.36-33.51-41.67-45.09-19.65-4.34,8.24-.6,16.67,5.33,23.36-10.27,4.06-6.94,18.37,2.42,25C1303.71,902.2,1319.94,901.9,1332.58,896.42Zm-30.53-25.49c-5.19-4.13-13-10-12.77-17.46.29-8.91,11.66-6.77,16.33-3.12,7.47,5.85,12.41,14,19.47,20.16a5.22,5.22,0,0,1,1.23,6.87c.52,3.07-1.15,6-5,5C1314.46,880.55,1307.53,875.26,1302.05,870.93Zm2.76,20.32c-3.14-1.39-7.26-9.55-1.45-10.32,5.18-.66,9.7.89,14.59,2.42s5.67,9.89,1.09,10.33a2.87,2.87,0,0,1-3,.84A51.22,51.22,0,0,1,1304.81,891.25Z"/><path class="cls-24" d="M1422.62,845.36c-.4-4.58-2.77-10.91-6.73-14.48a21.49,21.49,0,0,0-3.35-4.07c-3.46-3.17-9.65-5.64-12.88-.76-5.75,8.69,3.16,24,10,29.5C1418.44,862.65,1423.33,853.55,1422.62,845.36Z"/><path class="cls-24" d="M1406.89,881.36c2.53-3.07.87-8-.6-11a9.93,9.93,0,0,0-3.48-3.83c-.33-.44-.53-.91-.9-1.32-1.26-1.37-3.7-3.47-5.75-2.14-6.24,4-3.11,14.11,1.66,18.18C1400.43,883.45,1404.52,884.25,1406.89,881.36Z"/><path class="cls-24" d="M1384.66,894.72c1.43-4.76-6.58-13.34-8.45-7.21C1374.78,892.26,1382.8,900.85,1384.66,894.72Z"/><path class="cls-20" d="M608.7,793.26c5.62,4.57,11.92,8,16.24,9.34,30.77,9.4,64.09-33.3,54.55-61.21-3.52-10.29-12-25.53-23.76-27.46-17.15-2.83-20.36,24.12-27.29,33.81-7.93,11.07-21.54,7-29.52,16.38C590.81,773.7,598.77,785.22,608.7,793.26Z"/><path class="cls-21" d="M679.49,741.39c-3.52-10.29-12-25.53-23.76-27.46-17.15-2.83-20.36,24.12-27.29,33.81-7.93,11.07-21.54,7-29.52,16.38-8.11,9.58-.15,21.1,9.78,29.14,5.62,4.57,11.92,8,16.24,9.34C655.71,812,689,769.3,679.49,741.39Zm-59.14,27.88c3-6.72,9.46-4.41,15.13-.45-2.42-6-4.37-12.27.71-16,5.6-4.13,10.74-2.43,15.3,1a49.19,49.19,0,0,0-4.49-7,17.11,17.11,0,0,1-3.92-8.94c-.67-5.4,4.5-13.23,9.53-15,5.81-2,15.34,3.89,18.55,8.2,4.75,6.37,6.17,15.18,6.1,22.93-.14,14.33-7.67,30.36-20.07,38.13-6.79,4.26-16.17,4.87-23.76,2.3C622.36,790.77,615.22,780.84,620.35,769.27Z"/><path class="cls-22" d="M601.81,785.83c7.58-6.6,2.17-14.11-2.73-20.61l-1.54-.3c-8.6-12.6-25.81-32.1-34.73-15.14-3.34,6.36-.47,12.84,4.11,18-7.92,3.11-5.36,14.15,1.86,19.25C579.56,790.28,592.07,790.05,601.81,785.83Z"/><path class="cls-23" d="M601.81,785.83c7.58-6.6,2.17-14.11-2.73-20.61l-1.54-.3c-8.6-12.6-25.81-32.1-34.73-15.14-3.34,6.36-.47,12.84,4.11,18-7.92,3.11-5.36,14.15,1.86,19.25C579.56,790.28,592.07,790.05,601.81,785.83Zm-23.52-19.65c-4-3.15-10-7.69-9.83-13.44.22-6.86,9-5.22,12.58-2.4,5.75,4.51,9.58,10.77,15,15.53a4,4,0,0,1,1,5.3c.39,2.35-.89,4.65-3.84,3.86C587.85,773.6,582.52,769.53,578.29,766.18Zm2.14,15.67c-2.44-1.07-5.6-7.35-1.12-8,4-.52,7.48.67,11.25,1.86s4.34,7.63.83,8a2.25,2.25,0,0,1-2.34.67A39.69,39.69,0,0,1,580.43,781.85Z"/><path class="cls-24" d="M671.18,746.48c-.29-3.53-2.13-8.39-5.18-11.14a16.59,16.59,0,0,0-2.59-3.14c-2.67-2.44-7.43-4.34-9.92-.57-4.42,6.68,2.44,18.45,7.72,22.71C668,759.82,671.73,752.81,671.18,746.48Z"/><path class="cls-24" d="M659.06,774.22c2-2.35.69-6.14-.46-8.48a7.43,7.43,0,0,0-2.68-3c-.25-.32-.4-.68-.69-1-1-1.07-2.86-2.67-4.43-1.65-4.81,3.11-2.39,10.88,1.27,14C654.09,775.84,657.24,776.46,659.06,774.22Z"/><path class="cls-24" d="M641.94,784.52c1.1-3.68-5.08-10.29-6.5-5.56C634.33,782.62,640.51,789.25,641.94,784.52Z"/><path class="cls-25" d="M650.2,887.27C639,872,592.13,892.73,599,912.74c3.13,9,14.12,14.23,22.78,15.87,12.07,2.32,22.56-5.35,28.1-15.48C654.14,905.4,655.68,894.71,650.2,887.27Z"/><path class="cls-26" d="M648,878.58C636.74,863.28,589.9,884,596.82,904c3.12,9.07,14.11,14.23,22.78,15.89,12.07,2.32,22.54-5.36,28.1-15.49C651.93,896.7,653.46,886,648,878.58Z"/><path class="cls-25" d="M1033.1,809.91c-2.56-18.82-53.59-23-57.12-2.15-1.59,9.45,5.58,19.23,12.4,24.85,9.48,7.81,22.36,6.08,32.1-.15C1027.89,827.7,1034.35,819.05,1033.1,809.91Z"/><path class="cls-26" d="M1035.33,801.2c-2.57-18.8-53.62-23-57.13-2.14-1.59,9.44,5.58,19.24,12.41,24.85,9.48,7.8,22.36,6.09,32.08-.16C1030.1,819,1036.55,810.35,1035.33,801.2Z"/><path class="cls-25" d="M913.9,946.94c-2.09-15.33-43.68-18.77-46.54-1.76-1.31,7.71,4.54,15.69,10.09,20.26,7.73,6.37,18.23,5,26.15-.13C909.65,961.45,914.9,954.39,913.9,946.94Z"/><path class="cls-26" d="M915.71,939.86c-2.09-15.35-43.7-18.77-46.55-1.77-1.31,7.71,4.54,15.69,10.1,20.25,7.73,6.37,18.23,5,26.15-.11C911.45,954.36,916.71,947.31,915.71,939.86Z"/><path class="cls-27" d="M1305.23,774c-1.41-10.44-29.73-12.78-31.69-1.19-.89,5.24,3.09,10.68,6.89,13.78,5.25,4.34,12.4,3.38,17.8-.09C1302.35,783.83,1305.93,779,1305.23,774Z"/><path class="cls-28" d="M1306.47,769.11c-1.42-10.42-29.75-12.76-31.7-1.18-.88,5.23,3.1,10.68,6.89,13.79,5.26,4.34,12.4,3.38,17.81-.08C1303.58,779,1307.16,774.2,1306.47,769.11Z"/><path class="cls-27" d="M1471.59,891.93c-1.42-10.45-29.73-12.78-31.69-1.2-.88,5.26,3.1,10.67,6.87,13.79,5.28,4.34,12.42,3.38,17.82-.09C1468.7,901.81,1472.29,897,1471.59,891.93Z"/><path class="cls-28" d="M1472.84,887.09c-1.43-10.43-29.76-12.77-31.71-1.18-.88,5.22,3.09,10.66,6.88,13.78,5.26,4.34,12.41,3.4,17.8-.08C1469.93,897,1473.51,892.17,1472.84,887.09Z"/><path class="cls-27" d="M1081.93,768.82c-1.42-10.44-29.75-12.78-31.7-1.18-.88,5.24,3.11,10.67,6.87,13.79,5.28,4.33,12.42,3.38,17.83-.1C1079,778.7,1082.61,773.91,1081.93,768.82Z"/><path class="cls-28" d="M1083.16,764c-1.42-10.44-29.75-12.78-31.7-1.18-.88,5.23,3.09,10.67,6.89,13.77,5.26,4.33,12.41,3.41,17.8-.07C1080.26,773.87,1083.84,769.09,1083.16,764Z"/><path class="cls-27" d="M816.68,709.78c-1.41-10.45-29.74-12.78-31.69-1.19-.88,5.24,3.1,10.67,6.87,13.8,5.28,4.32,12.41,3.38,17.82-.1C813.79,719.66,817.37,714.86,816.68,709.78Z"/><path class="cls-28" d="M817.92,704.94c-1.43-10.43-29.75-12.76-31.7-1.18-.88,5.24,3.09,10.68,6.88,13.79,5.26,4.32,12.42,3.39,17.8-.09C815,714.83,818.6,710,817.92,704.94Z"/><path class="cls-27" d="M385,826.6c-1.42-10.46-29.74-12.79-31.69-1.21-.88,5.24,3.1,10.68,6.87,13.79,5.26,4.34,12.41,3.38,17.81-.09C382.08,836.47,385.66,831.65,385,826.6Z"/><path class="cls-28" d="M386.21,821.77c-1.42-10.44-29.74-12.79-31.7-1.22-.88,5.25,3.1,10.69,6.89,13.81,5.25,4.34,12.41,3.38,17.8-.09C383.32,831.65,386.9,826.83,386.21,821.77Z"/><path class="cls-27" d="M638.11,843c-1.42-10.47-29.74-12.79-31.68-1.21-.89,5.25,3.09,10.68,6.87,13.8,5.26,4.33,12.41,3.37,17.81-.1C635.22,852.89,638.8,848.09,638.11,843Z"/><path class="cls-28" d="M639.34,838.17c-1.41-10.43-29.73-12.76-31.69-1.19-.88,5.24,3.1,10.68,6.89,13.8,5.25,4.33,12.41,3.38,17.8-.09C636.46,848,640,843.25,639.34,838.17Z"/><path class="cls-25" d="M1545.3,876.84c-2.09-15.34-43.68-18.76-46.54-1.75-1.3,7.69,4.54,15.68,10.09,20.27,7.74,6.34,18.23,4.95,26.15-.14C1541.05,891.35,1546.31,884.3,1545.3,876.84Z"/><path class="cls-26" d="M1547.11,869.75c-2.09-15.33-43.69-18.76-46.55-1.75-1.3,7.7,4.54,15.68,10.1,20.25,7.73,6.37,18.24,5,26.16-.12C1542.85,884.26,1548.12,877.21,1547.11,869.75Z"/><path class="cls-25" d="M1198,718.86c-2.09-15.33-43.69-18.77-46.56-1.75-1.29,7.7,4.55,15.68,10.1,20.26,7.73,6.35,18.24,5,26.17-.13C1193.75,733.37,1199,726.32,1198,718.86Z"/><path class="cls-26" d="M1199.83,711.76c-2.1-15.32-43.69-18.76-46.56-1.75-1.29,7.71,4.55,15.69,10.11,20.25,7.73,6.38,18.21,5,26.15-.1C1195.57,726.28,1200.83,719.22,1199.83,711.76Z"/><path class="cls-29" d="M787.13,738.9c-1.61.71-22.54-6.94-24.09-6.22-12.72,5.77-31.23,8.72-42.36,19-.93.85.44,6.35-.42,7.25a80.58,80.58,0,0,0,13.58,11.86c13.43-5.83,26-13.31,39.4-19.17a145.11,145.11,0,0,1,13.8-5C789.48,744.93,792.91,744.9,787.13,738.9Z"/><path class="cls-30" d="M768.48,723.19c-1.63.7-3.35,1.41-4.9,2.1-13.79,6.26-31.71,14.62-42.78,26.29a80.3,80.3,0,0,0,13.58,11.87c13.43-5.83,26-13.33,39.39-19.18a145.37,145.37,0,0,1,13.81-5.06C781,734.1,774.25,729.21,768.48,723.19Z"/><path class="cls-29" d="M1219,777.73c-1.62.71-22.53-6.93-24.09-6.22-12.72,5.77-31.23,8.71-42.36,19-.94.84.43,6.35-.42,7.25a80.58,80.58,0,0,0,13.58,11.86c13.43-5.82,26-13.33,39.39-19.17a136.61,136.61,0,0,1,13.81-5C1221.31,783.78,1224.74,783.74,1219,777.73Z"/><path class="cls-30" d="M1200.3,762c-1.64.72-3.35,1.4-4.89,2.12-13.79,6.25-31.72,14.6-42.78,26.29a81.54,81.54,0,0,0,13.58,11.86c13.42-5.84,26-13.32,39.39-19.19,4.49-2,9.13-3.54,13.81-5.05C1212.83,773,1206.08,768,1200.3,762Z"/><path class="cls-29" d="M555.05,898.43c-1.78-.08-17.09-16.25-18.8-16.3-14-.52-31.85-6.14-46.41-1.86-1.2.35-2.43,5.88-3.6,6.32a81,81,0,0,0,6.87,16.66c14.62.76,29.18-.33,43.8.41a137.9,137.9,0,0,1,14.62,1.63C554.44,904.88,557.53,906.39,555.05,898.43Z"/><path class="cls-30" d="M545.34,876.06c-1.77-.1-3.62-.24-5.33-.31-15.12-.54-34.89-1.06-50,4.46a80.43,80.43,0,0,0,6.87,16.68c14.61.77,29.19-.34,43.79.39a142.4,142.4,0,0,1,14.62,1.63C551.69,891.4,547.83,884,545.34,876.06Z"/><path class="cls-29" d="M1326.35,941c-1.77-.09-17.09-16.25-18.81-16.33-14-.5-31.83-6.11-46.39-1.84-1.22.35-2.45,5.87-3.62,6.29a81.14,81.14,0,0,0,6.87,16.7c14.62.76,29.2-.35,43.81.38,4.91.25,9.77.91,14.61,1.64C1325.75,947.41,1328.83,948.9,1326.35,941Z"/><path class="cls-30" d="M1316.64,918.58c-1.78-.09-3.61-.25-5.32-.31-15.13-.54-34.9-1.06-50,4.45a80.43,80.43,0,0,0,6.87,16.68c14.62.77,29.19-.33,43.81.41a140.38,140.38,0,0,1,14.61,1.63C1323,933.93,1319.12,926.52,1316.64,918.58Z"/><path class="cls-29" d="M1442,759.52c-1.77-.08-17.09-16.26-18.8-16.32-14-.5-31.83-6.11-46.4-1.85-1.2.36-2.44,5.88-3.6,6.3a79.19,79.19,0,0,0,6.87,16.7c14.62.76,29.18-.35,43.79.38,4.93.25,9.77.91,14.62,1.64C1441.36,766,1444.45,767.49,1442,759.52Z"/><path class="cls-30" d="M1432.26,737.14c-1.77-.09-3.61-.24-5.33-.3-15.12-.55-34.9-1.06-50,4.46A81.45,81.45,0,0,0,1383.8,758c14.6.77,29.18-.34,43.8.41a141.2,141.2,0,0,1,14.62,1.64C1438.6,752.5,1434.74,745.09,1432.26,737.14Z"/><path class="cls-29" d="M837.68,822.09c-1.78-.09-17.09-16.26-18.79-16.32-14-.51-31.85-6.13-46.41-1.86-1.21.36-2.44,5.88-3.61,6.31a80.13,80.13,0,0,0,6.87,16.67c14.6.77,29.19-.33,43.8.41a143.68,143.68,0,0,1,14.62,1.64C837.07,828.54,840.16,830,837.68,822.09Z"/><path class="cls-30" d="M828,799.7c-1.78-.09-3.63-.24-5.34-.3-15.11-.54-34.89-1.06-50,4.45a81,81,0,0,0,6.87,16.69c14.61.77,29.19-.35,43.79.39a144.92,144.92,0,0,1,14.62,1.63C834.32,815.06,830.46,807.65,828,799.7Z"/><path class="cls-29" d="M1102.85,960.85c-1.78-.09-17.09-16.25-18.79-16.32-14-.52-31.86-6.13-46.41-1.86-1.22.35-2.44,5.88-3.61,6.31a80.21,80.21,0,0,0,6.87,16.68c14.61.77,29.19-.33,43.8.4a143.66,143.66,0,0,1,14.62,1.63C1102.25,967.29,1105.33,968.79,1102.85,960.85Z"/><path class="cls-30" d="M1093.15,938.46c-1.78-.09-3.63-.24-5.34-.3-15.11-.54-34.89-1.06-50,4.45a81,81,0,0,0,6.87,16.68c14.62.77,29.19-.34,43.79.4a142.4,142.4,0,0,1,14.62,1.63C1099.49,953.82,1095.63,946.42,1093.15,938.46Z"/><path class="cls-20" d="M935.24,835.23c4.18-8.46,6.75-17.38,7.18-23.24,3.14-41.65-60.42-71.69-93.06-51.64-12,7.39-28.9,22.49-28,37.93,1.32,22.51,36.35,18.88,50.6,24.92,16.27,6.88,15,25.27,29.16,32.7C915.55,863.44,927.88,850.08,935.24,835.23Z"/><path class="cls-21" d="M849.36,760.35c-12,7.39-28.9,22.49-28,37.93,1.32,22.51,36.35,18.88,50.6,24.92,16.27,6.88,15,25.27,29.16,32.7,14.44,7.54,26.77-5.82,34.13-20.67,4.18-8.46,6.75-17.38,7.18-23.24C945.56,770.34,882,740.3,849.36,760.35Zm52.18,66.94c-9.38-1.85-8.29-10.7-4.87-19-6.89,4.78-14.3,9-20.48,3.69-6.81-5.93-6.13-12.93-3.05-19.68a65.11,65.11,0,0,0-7.61,7.68c-3,3.56-5.77,5.94-10.2,7.53-6.64,2.35-18-1.94-21.68-7.81-4.2-6.8.58-20.54,5.13-25.85,6.68-7.81,17.44-12.14,27.28-14.24,18.19-3.92,40.63,1,54,14.54,7.32,7.39,10.76,19.1,9.68,29.45C928.17,818.63,917.64,830.49,901.54,827.29Z"/><path class="cls-22" d="M927.78,846.06c-10.52-7.72-18.49,1.27-25.32,9.32,0,.69,0,1.37,0,2-13.49,14.48-33.28,41.83-9.27,48.31,9,2.41,16.39-3.09,21.63-10.34,6.21,9.13,19.46,2.75,23.85-7.83C939.76,873,935.9,857.17,927.78,846.06Z"/><path class="cls-23" d="M927.78,846.06c-10.52-7.72-18.49,1.27-25.32,9.32,0,.69,0,1.37,0,2-13.49,14.48-33.28,41.83-9.27,48.31,9,2.41,16.39-3.09,21.63-10.34,6.21,9.13,19.46,2.75,23.85-7.83C939.76,873,935.9,857.17,927.78,846.06ZM909.6,881.43c-2.87,6-6.88,14.89-14.22,16.29-8.76,1.67-9.17-9.89-6.63-15.25,4.08-8.56,10.9-15.17,15.41-23.42a5.2,5.2,0,0,1,6.43-2.7c2.86-1.18,6.13-.19,6,3.76C916.28,867.22,912.64,875.13,909.6,881.43Zm19.22-7.16c-.65,3.38-7.72,9.18-9.73,3.69-1.79-4.89-1.28-9.67-.85-14.78s8.4-7.69,9.83-3.32a2.94,2.94,0,0,1,1.51,2.78A52,52,0,0,1,928.82,874.27Z"/><path class="cls-24" d="M858.19,769.42c-4.38,1.39-10,5.1-12.63,9.73a21.45,21.45,0,0,0-3.24,4.19c-2.35,4-3.38,10.63,2.09,12.71,9.72,3.71,22.67-8.32,26.59-16.24C876,769.69,866,766.94,858.19,769.42Z"/><path class="cls-24" d="M896.77,776.85c-3.54-1.78-8,.9-10.62,3a9.78,9.78,0,0,0-3,4.23c-.34.44-.75.71-1.07,1.16-1.08,1.54-2.57,4.38-.85,6.08,5.33,5.21,14.47-.07,17.38-5.61C900.23,782.69,900.12,778.54,896.77,776.85Z"/><path class="cls-24" d="M914.67,795.62c-4.93-.35-11.57,9.36-5.16,9.82C914.46,805.8,921.08,796.1,914.67,795.62Z"/></g></g></svg>